#!OML:ASF G:\ViconDB\ViconDB\414\test\team2\shane.ASF
:FULLY-SPECIFIED
:DEGREES
361
root 6.58554 16.2922 23.7685 -12.4433 0.531925 -2.10242
lowerback 7.85739 -0.447828 -0.38389
upperback 5.19204 -0.619629 0.693959
thorax 0.97032 -0.330696 0.971956
lowerneck -17.7593 -3.08183 -11.1547
upperneck 19.1807 -3.71334 11.1527
head 9.39217 -1.34493 5.271
rclavicle 4.96962e-016 4.37326e-015
rhumerus -45.2821 21.6733 -98.2344
rradius 30.2562
rwrist 29.7635
rhand -26.0243 -11.6992
rfingers 7.12502
rthumb 0.522266 -41.6783
lclavicle 2.28602e-015 4.77083e-015
lhumerus -28.2222 -10.0699 92.6477
lradius 14.6968
lwrist -22.4817
lhand -39.3088 10.8639
lfingers 7.12502
lthumb -12.3014 40.4821
rfemur -10.7219 -13.0625 12.9665
rtibia 66.801
rfoot -18.9986 -3.85685
rtoes -15.3453
lfemur 4.28506 7.40245 -14.9725
ltibia 38.7702
lfoot -32.3711 -7.01337
ltoes -7.25467
362
root 6.58424 16.3532 23.9165 -12.3745 0.866156 -2.36823
lowerback 7.82324 -0.919964 -0.570919
upperback 5.10794 -1.25954 0.892726
thorax 0.924192 -0.658843 1.3251
lowerneck -17.7949 -2.72994 -10.6897
upperneck 19.1845 -3.30109 10.9453
head 9.33481 -1.13929 5.17154
rclavicle 2.90567e-015 4.96962e-016
rhumerus -45.5269 21.0922 -97.4941
rradius 30.6545
rwrist 29.6588
rhand -25.8747 -11.5114
rfingers 7.12502
rthumb 0.666734 -41.4901
lclavicle 2.90567e-015 4.96962e-016
lhumerus -27.8318 -10.1859 92.6649
lradius 15.0032
lwrist -22.0749
lhand -39.4004 10.3935
lfingers 7.12502
lthumb -12.3897 40.0064
rfemur -11.7838 -12.9176 13.7903
rtibia 65.1496
rfoot -18.9986 -3.85685
rtoes -15.3453
lfemur 5.47499 7.02276 -14.6957
ltibia 37.1963
lfoot -31.9051 -7.18775
ltoes -7.44224
363
root 6.58719 16.4232 24.0753 -12.4131 0.92587 -2.51059
lowerback 7.71441 -1.16265 -0.499248
upperback 5.1417 -1.57906 1.12056
thorax 1.03296 -0.821857 1.53798
lowerneck -18.1553 -2.63074 -10.8521
upperneck 19.5016 -3.08586 10.8775
head 9.48594 -1.05042 5.21699
rclavicle 1.08109e-015 -5.64051e-015
rhumerus -42.6788 10.403 -86.5724
rradius 47.771
rwrist -146.036
rhand -12.4002 10.163
rfingers 7.12502
rthumb 13.6713 -19.3679
lclavicle 1.08109e-015 -5.64051e-015
lhumerus -27.6088 -11.7358 93.4419
lradius 15.5984
lwrist -21.1619
lhand -39.7014 10.2466
lfingers 7.12502
lthumb -12.6799 39.8417
rfemur -12.7494 -12.39 14.3696
rtibia 63.4007
rfoot -19.2643 -2.60046
rtoes -13.3391
lfemur 6.91893 6.74729 -14.5662
ltibia 35.496
lfoot -31.3188 -7.3053
ltoes -7.25421
364
root 6.58733 16.4764 24.2247 -12.4204 1.10292 -2.50905
lowerback 7.71355 -1.41665 -0.720905
upperback 5.12538 -1.93104 1.28759
thorax 1.04154 -1.00664 1.85741
lowerneck -18.2862 -2.413 -10.7039
upperneck 19.5405 -2.79004 10.7792
head 9.48258 -0.908956 5.19795
rclavicle -1.87991e-014 -7.7526e-015
rhumerus -42.689 9.75792 -85.8574
rradius 47.9212
rwrist -146.729
rhand -12.4768 10.1705
rfingers 7.12502
rthumb 13.5975 -19.3655
lclavicle -1.87991e-014 -7.7526e-015
lhumerus -27.2157 -12.2859 93.7226
lradius 16.2253
lwrist -20.5876
lhand -39.585 9.96426
lfingers 7.12502
lthumb -12.5677 39.5663
rfemur -13.5032 -12.2458 14.8251
rtibia 61.4679
rfoot -19.0957 -2.05112
rtoes -14.4459
lfemur 8.22393 6.49025 -14.5845
ltibia 33.8013
lfoot -30.6678 -7.28692
ltoes -7.5472
365
root 6.59044 16.5298 24.3762 -12.3503 1.27622 -2.73351
lowerback 7.56955 -1.68463 -0.572939
upperback 5.11953 -2.27995 1.49474
thorax 1.13131 -1.18208 2.00547
lowerneck -18.7646 -2.13699 -10.2072
upperneck 19.9113 -2.39282 10.216
head 9.63813 -0.738461 4.9788
rclavicle 1.18246e-014 -5.76476e-015
rhumerus -42.763 9.19344 -85.2727
rradius 48.124
rwrist -146.292
rhand -12.0462 10.2024
rfingers 7.12502
rthumb 14.0125 -19.3053
lclavicle 1.18246e-014 -5.76476e-015
lhumerus -27.0047 -13.6862 94.2675
lradius 17.0877
lwrist -19.5533
lhand -39.6946 9.64382
lfingers 7.12502
lthumb -12.6734 39.2393
rfemur -14.3223 -12.0253 15.4369
rtibia 59.4509
rfoot -18.7757 -1.24242
rtoes -14.2924
lfemur 9.52059 6.19843 -14.3916
ltibia 31.9826
lfoot -29.9792 -7.29274
ltoes -7.8734
366
root 6.58762 16.5783 24.5284 -12.2724 1.46732 -2.81566
lowerback 7.46738 -1.96211 -0.82505
upperback 5.09042 -2.66548 1.75267
thorax 1.19835 -1.38668 2.43281
lowerneck -18.7954 -1.95634 -10.1267
upperneck 19.8609 -2.12377 10.073
head 9.59171 -0.62218 4.94789
rclavicle -2.51587e-014 1.63003e-014
rhumerus -45.401 19.3894 -95.027
rradius 31.55
rwrist 28.4196
rhand -26.1378 -11.4016
rfingers 7.12502
rthumb 0.412623 -41.3809
lclavicle -2.51587e-014 1.63003e-014
lhumerus -26.6877 -14.1294 94.5033
lradius 17.6383
lwrist -19.9689
lhand -40.0334 9.45228
lfingers 7.12502
lthumb -13 39.0272
rfemur -15.0617 -11.8144 15.8611
rtibia 57.3225
rfoot -18.0548 -0.175117
rtoes -14.6863
lfemur 10.7769 6.03708 -14.2903
ltibia 30.2331
lfoot -29.3522 -7.35842
ltoes -8.27977
367
root 6.58824 16.6331 24.6828 -12.2028 1.67218 -2.87386
lowerback 7.39984 -2.19945 -0.916424
upperback 4.97966 -2.98661 1.9306
thorax 1.1518 -1.55184 2.68617
lowerneck -18.8452 -1.74441 -10.047
upperneck 20.0778 -1.84186 10.0007
head 9.64198 -0.493311 4.95407
rclavicle 3.02277e-014 -1.98785e-014
rhumerus -45.5221 18.6184 -94.3515
rradius 31.7914
rwrist 28.5334
rhand -26.4731 -11.7575
rfingers 7.12502
rthumb 0.0887983 -41.7372
lclavicle 3.02277e-014 -1.98785e-014
lhumerus -26.7724 -15.597 95.1074
lradius 18.7094
lwrist -18.4111
lhand -40.1761 9.17301
lfingers 7.12502
lthumb -13.1375 38.7392
rfemur -15.7419 -11.4681 16.1233
rtibia 55.138
rfoot -16.8403 1.22919
rtoes -14.5574
lfemur 12.1549 5.91317 -14.2025
ltibia 28.3071
lfoot -28.6727 -7.48643
ltoes -8.96263
368
root 6.59028 16.6753 24.8362 -12.0561 1.86168 -2.92444
lowerback 7.41443 -2.52176 -1.16621
upperback 4.7737 -3.42901 2.15715
thorax 0.984775 -1.78008 3.09204
lowerneck -18.979 -1.38748 -9.47732
upperneck 20.4267 -1.35982 9.33351
head 9.72527 -0.299892 4.69309
rclavicle 1.26912e-014 -3.57812e-015
rhumerus -45.4611 17.1049 -93.1837
rradius 31.9594
rwrist 29.1051
rhand -26.7506 -11.3909
rfingers 7.12502
rthumb -0.179193 -41.3706
lclavicle 1.26912e-014 -3.57812e-015
lhumerus -26.9527 -16.7771 95.6003
lradius 19.9419
lwrist -17.2045
lhand -40.2559 9.30418
lfingers 7.12502
lthumb -13.2145 38.8654
rfemur -16.3881 -11.2902 16.434
rtibia 52.9172
rfoot -15.6122 2.07594
rtoes -15.1645
lfemur 13.474 5.87171 -14.1056
ltibia 26.3424
lfoot -28.0014 -7.70328
ltoes -9.01487
369
root 6.58717 16.7193 24.9913 -11.9465 2.03858 -3.01402
lowerback 7.47771 -2.72732 -1.3168
upperback 4.53118 -3.70895 2.42613
thorax 0.745449 -1.92264 3.48191
lowerneck -18.6954 -1.34621 -9.68961
upperneck 20.4388 -1.283 9.40588
head 9.66983 -0.278769 4.76254
rclavicle 2.64011e-015 1.19271e-015
rhumerus -45.6808 15.9921 -92.0932
rradius 32.3212
rwrist 29.4778
rhand -26.5843 -11.2326
rfingers 7.12502
rthumb -0.0186134 -41.2124
lclavicle 2.64011e-015 1.19271e-015
lhumerus -27.092 -17.9298 96.2128
lradius 20.8142
lwrist -16.1058
lhand -40.7867 8.67025
lfingers 7.12502
lthumb -13.7261 38.1975
rfemur -17.0006 -10.8144 16.6752
rtibia 50.7499
rfoot -14.0056 3.22277
rtoes -14.0471
lfemur 14.8147 5.82677 -13.9326
ltibia 24.3968
lfoot -27.3373 -7.99301
ltoes -8.94419
